<svg width="35" height="35" viewBox="0 0 35 35" fill="none" xmlns="http://www.w3.org/2000/svg">
<path d="M25.65 9.1499H25.665M9.90002 2.3999H24.9C29.0422 2.3999 32.4 5.75777 32.4 9.8999V24.8999C32.4 29.042 29.0422 32.3999 24.9 32.3999H9.90002C5.75789 32.3999 2.40002 29.042 2.40002 24.8999V9.8999C2.40002 5.75777 5.75789 2.3999 9.90002 2.3999ZM23.4 16.4549C23.5851 17.7033 23.3719 18.9782 22.7907 20.0984C22.2094 21.2186 21.2897 22.127 20.1625 22.6944C19.0352 23.2618 17.7577 23.4593 16.5117 23.2588C15.2657 23.0583 14.1147 22.47 13.2223 21.5776C12.3299 20.6853 11.7416 19.5342 11.5411 18.2882C11.3406 17.0422 11.5381 15.7647 12.1055 14.6375C12.6729 13.5102 13.5813 12.5905 14.7015 12.0093C15.8217 11.428 17.0967 11.2148 18.345 11.3999C19.6184 11.5887 20.7973 12.1821 21.7076 13.0924C22.6178 14.0026 23.2112 15.1815 23.4 16.4549Z" stroke="white" stroke-width="4" stroke-linecap="round" stroke-linejoin="round"/>
</svg>
